<?xml version="1.0" standalone="no"?>
<!DOCTYPE svg PUBLIC "-//W3C//DTD SVG 20010904//EN"
 "http://www.w3.org/TR/2001/REC-SVG-20010904/DTD/svg10.dtd">
<svg version="1.0" xmlns="http://www.w3.org/2000/svg"
 width="512.000000pt" height="512.000000pt" viewBox="0 0 512.000000 512.000000"
 preserveAspectRatio="xMidYMid meet">

<g transform="translate(0.000000,512.000000) scale(0.100000,-0.100000)"
fill="white" stroke="none">
<path d="M879 5107 c-104 -30 -190 -104 -238 -206 l-26 -56 -3 -1470 c-2
-1030 0 -1507 8 -1595 42 -465 233 -875 564 -1206 319 -319 707 -507 1152
-559 917 -107 1781 444 2074 1325 142 427 129 901 -37 1320 -259 656 -853
1123 -1553 1221 -133 19 -430 16 -555 -5 -211 -35 -414 -101 -590 -192 -96
-49 -238 -138 -295 -186 l-35 -28 -5 688 -5 687 -32 66 c-61 123 -171 197
-306 205 -42 2 -91 -1 -118 -9z m1864 -1952 c664 -100 1122 -723 1022 -1388
-89 -594 -604 -1037 -1205 -1037 -326 0 -625 124 -860 358 -225 223 -344 494
-357 812 -31 767 642 1369 1400 1255z"/>
</g>
</svg>
